<?xml version="1.0" encoding="iso-8859-1"?>
<!-- Generator: Adobe Illustrator 19.0.0, SVG Export Plug-In . SVG Version: 6.00 Build 0)  -->
<svg version="1.1" id="Capa_1" xmlns="http://www.w3.org/2000/svg" xmlns:xlink="http://www.w3.org/1999/xlink" x="0px" y="0px"
	 viewBox="0 0 512 512" style="enable-background:new 0 0 512 512;" xml:space="preserve">
<g>
	<g>
		<path d="M467,121H352.277l-55.714-56.524C299.406,58.579,301,51.972,301,45c0-24.813-20.187-45-45-45s-45,20.187-45,45
			c0,6.973,1.594,13.58,4.437,19.477L159.724,121H45c-24.796,0-45,20.208-45,45v301c0,24.806,20.219,45,45,45h422
			c24.815,0,45-20.229,45-45V166C512,141.185,491.772,121,467,121z M256,30c8.271,0,15,6.729,15,15s-6.729,15-15,15s-15-6.729-15-15
			S247.729,30,256,30z M236.698,85.642C242.551,88.433,249.095,90,256,90c6.905,0,13.449-1.567,19.302-4.358L310.153,121H201.847
			L236.698,85.642z M460.787,151l-30,30H81.213l-30-30H460.787z M376,332c-31.366,0-61.1,10.631-85.091,30.18
			C242.007,322.51,181.925,302,121,302c-10.327,0-20.81,0.575-31,1.683V211h332v128.823C407.36,334.726,391.621,332,376,332z
			 M422,372.149V422h-76.469c-9.446-14.106-20.207-27.285-32.087-39.354C331.435,369.246,353.162,362,376,362
			C391.932,362,407.965,365.576,422,372.149z M308.4,422H90v-88.109c10.112-1.236,20.63-1.891,31-1.891
			C195.355,332,263.379,365.591,308.4,422z M30,460.787V172.213l30,30v228.574L30,460.787z M51.213,482l30-30
			c10.526,0,340.792,0,349.574,0l30,30H51.213z M482,460.786l-30-29.999V202.213l30-30V460.786z"/>
	</g>
</g>
<g>
	<g>
		<path d="M286,242c-24.813,0-45,20.187-45,45s20.187,45,45,45s45-20.187,45-45S310.813,242,286,242z M286,302
			c-8.271,0-15-6.729-15-15s6.729-15,15-15s15,6.729,15,15S294.271,302,286,302z"/>
	</g>
</g>
<g>
</g>
<g>
</g>
<g>
</g>
<g>
</g>
<g>
</g>
<g>
</g>
<g>
</g>
<g>
</g>
<g>
</g>
<g>
</g>
<g>
</g>
<g>
</g>
<g>
</g>
<g>
</g>
<g>
</g>
</svg>
