<svg height="512pt" viewBox="0 0 512 512" width="512pt" xmlns="http://www.w3.org/2000/svg" xmlns:xlink="http://www.w3.org/1999/xlink"><linearGradient id="a" gradientUnits="userSpaceOnUse" x1="74.9807" x2="437.0193" y1="74.9807" y2="437.0193"><stop offset="0" stop-color="#61729b"/><stop offset="1" stop-color="#47568c"/></linearGradient><linearGradient id="b"><stop offset="0" stop-color="#ffda2d"/><stop offset="1" stop-color="#dc9e00"/></linearGradient><linearGradient id="c" gradientUnits="userSpaceOnUse" x1="158.1871" x2="353.1586" xlink:href="#b" y1="163.125" y2="163.125"/><linearGradient id="d" gradientUnits="userSpaceOnUse" x1="69.6889" x2="442.3111" xlink:href="#b" y1="308.753" y2="308.753"/><linearGradient id="e" gradientUnits="userSpaceOnUse" x1="175.5807" x2="257.7098" y1="184.1582" y2="266.2873"><stop offset="0" stop-color="#47568c"/><stop offset="1" stop-color="#2c3b73"/></linearGradient><linearGradient id="f" gradientUnits="userSpaceOnUse" x1="275.9432" x2="366.9918" y1="188.533" y2="279.5815"><stop offset="0" stop-color="#fa5e97"/><stop offset="1" stop-color="#d94f88"/></linearGradient><path d="m512 256c0 141.386719-114.613281 256-256 256s-256-114.613281-256-256 114.613281-256 256-256 256 114.613281 256 256zm0 0" fill="url(#a)"/><path d="m353.160156 196.746094c-1.09375-.433594-2.402344-.433594-3.710937-.433594l-6.335938-.21875-3.054687-5.457031c-3.710938-6.769531-10.917969-11.136719-18.558594-11.136719s-14.847656 4.367188-18.558594 11.136719l-3.054687 5.675781h-6.550781c-5.894532 0-10.917969 1.746094-14.628907 5.023438-1.746093 1.527343-3.273437 3.273437-4.585937 5.457031-.875 1.746093-1.527344 3.492187-1.964844 5.457031h-104.144531c-2.835938 0-5.457031-1.089844-7.203125-3.273438-1.53125-1.53125-2.402344-3.710937-2.621094-5.679687 0-.652344.21875-1.308594.21875-1.960937 5.457031-49.128907 47.160156-87.335938 97.59375-87.335938 48.253906 0 88.863281 34.496094 96.941406 81.875zm0 0" fill="url(#c)"/><path d="m442.3125 264.648438-.730469 14.191406c-6.328125 62.664062-72.265625 97.160156-185.582031 97.160156s-179.253906-34.496094-185.582031-97.160156l-.730469-14.191406 20.597656 3.714843c23.144532 4.148438 49.125 8.949219 67.464844-15.941406v-1.308594c0-5.242187 4.367188-9.605469 9.609375-9.605469h106.546875c-1.96875 3.492188-2.621094 7.203126-2.183594 10.914063 0 3.058594.871094 6.335937 2.402344 8.953125 4.148438 6.769531 10.480469 10.261719 19.429688 10.480469l6.332031.21875 3.058593 5.457031c3.710938 6.769531 10.917969 11.136719 18.558594 11.136719s14.84375-4.367188 18.558594-11.136719l3.054688-5.457031 6.113281-.21875c4.585937 0 12.230469-1.308594 17.6875-7.640625 16.59375 10.695312 32.09375 8.078125 52.835937 4.363281zm0 0" fill="url(#d)"/><path d="m274.558594 228.40625 3.277344 5.675781-3.277344 5.679688c-.21875.652343-.65625 1.089843-.65625 1.746093-1.964844 3.492188-2.617188 7.058594-2.183594 10.769532h-113.96875v-40.027344c0-3.058594.21875-6.113281.4375-8.953125 0-.652344.21875-1.308594.21875-1.960937h120.300781c-1.746093 1.527343-3.273437 3.273437-4.585937 5.457031-.871094 1.746093-1.527344 3.492187-1.964844 5.457031-1.308594 5.238281-.4375 11.136719 2.402344 16.15625zm0 0" fill="url(#e)"/><path d="m321.5 299.582031c-11.90625 0-22.527344-6.628906-28.144531-16.746093-12.378907-.257813-22.621094-5.683594-28.582031-16.003907-5.960938-10.320312-5.523438-22.824219.425781-32.75-5.949219-9.925781-6.386719-22.429687-.425781-32.75 5.957031-10.320312 16.078124-15.988281 28.582031-16 5.617187-10.117187 16.234375-16.75 28.144531-16.75s22.527344 6.632813 28.144531 16.75c12.152344.128907 22.621094 5.679688 28.582031 16 5.960938 10.320313 5.523438 22.824219-.425781 32.75 5.949219 9.925781 6.386719 22.429688.425781 32.75-5.957031 10.308594-16.554687 15.628907-28.582031 16.003907-5.617187 10.117187-16.238281 16.746093-28.144531 16.746093zm0 0" fill="url(#f)"/><path d="m310.582031 223.167969h21.832031v21.832031h-21.832031zm0 0" fill="#e0f4ff"/></svg>