<svg height="496pt" viewBox="-21 0 496 496" width="496pt" xmlns="http://www.w3.org/2000/svg"><path d="m50.640625 136h16v16h-16zm0 0"/><path d="m114.640625 216h16v16h-16zm0 0"/><path d="m218.640625 288h16v16h-16zm0 0"/><path d="m450.097656 122.894531 3.183594-8.175781-153.226562-43.78125c-10.253907-2.929688-17.414063-12.425781-17.414063-23.082031v-47.855469h-112v47.855469c0 10.65625-7.160156 20.152343-17.410156 23.082031l-153.230469 43.78125 3.183594 8.175781c8.480468 21.808594 19.097656 42.554688 31.457031 62.105469v72.472656c-9.289063 3.3125-16 12.113282-16 22.527344 0 13.230469 10.765625 24 24 24 13.230469 0 24-10.769531 24-24 0-10.414062-6.710937-19.214844-16-22.527344v-49.199218c16.375 21.941406 35.175781 41.957031 56 59.695312v69.503906c-9.289063 3.3125-16 12.113282-16 22.527344 0 13.230469 10.765625 24 24 24 13.230469 0 24-10.769531 24-24 0-10.414062-6.710937-19.214844-16-22.527344v-56.601562c25.726563 19.527344 54.070313 35.777344 84.488281 47.9375l11.511719 4.605468v35.136719c-31.519531 3.960938-56 30.875-56 63.449219 0 35.289062 28.710937 64 64 64s64-28.710938 64-64c0-32.574219-24.480469-59.488281-56-63.449219v-35.136719l11.511719-4.605468c30.40625-12.160156 58.757812-28.410156 84.488281-47.9375v56.601562c-9.289063 3.3125-16 12.113282-16 22.527344 0 13.230469 10.765625 24 24 24 13.230469 0 24-10.769531 24-24 0-10.414062-6.710937-19.214844-16-22.527344v-69.503906c20.824219-17.738281 39.625-37.761719 56-59.695312v49.199218c-9.289063 3.3125-16 12.113282-16 22.527344 0 13.230469 10.765625 24 24 24 13.230469 0 24-10.769531 24-24 0-10.414062-6.710937-19.214844-16-22.527344v-72.472656c12.359375-19.550781 22.976563-40.296875 31.457031-62.105469zm-407.457031 165.105469c-4.417969 0-8-3.585938-8-8s3.582031-8 8-8c4.414063 0 8 3.585938 8 8s-3.585937 8-8 8zm72 80c-4.417969 0-8-3.585938-8-8s3.582031-8 8-8c4.414063 0 8 3.585938 8 8s-3.585937 8-8 8zm224 0c-4.417969 0-8-3.585938-8-8s3.582031-8 8-8c4.414063 0 8 3.585938 8 8s-3.585937 8-8 8zm72-80c-4.417969 0-8-3.585938-8-8s3.582031-8 8-8c4.414063 0 8 3.585938 8 8s-3.585937 8-8 8zm-18.402344-92.585938-41.375-35.460937c8.96875-11.824219 17.488281-23.976563 25.25-36.59375l7.351563-11.945313 48.421875 13.832032c-10.453125 25.011718-23.863281 48.507812-39.648438 70.167968zm-134.230469 36.355469c.398438-2.523437.632813-5.113281.632813-7.769531 0-10.609375-3.375-20.199219-8.785156-27.367188 50.792969-14.679687 82.160156-74.167968 92.503906-96.960937l25.128906 7.175781-5 8.121094c-27.464843 44.648438-63.191406 84.34375-104.480469 116.800781zm-167.214843-116.800781-5-8.121094 25.128906-7.175781c10.34375 22.792969 41.710937 82.28125 92.503906 96.960937-5.410156 7.167969-8.785156 16.757813-8.785156 27.367188 0 2.65625.230469 5.246094.632813 7.769531-41.289063-32.457031-77.015626-72.152343-104.480469-116.800781zm191.007812 5.03125h31.550781c-8.984374 14.679688-21.230468 31.199219-36.414062 43.800781zm-21.578125 49.28125-14.109375-28.226562c6.886719-2.144532 12.925781-5.367188 18.269531-9.199219zm-30.628906-25.488281 18.328125 36.65625c-6.738281 2.238281-13.824219 3.550781-21.28125 3.550781s-14.535156-1.3125-21.28125-3.550781l18.328125-36.648438c1 .039063 1.929688.199219 2.953125.199219s1.953125-.160156 2.953125-.207031zm13.046875 80.207031c0 13.007812-7.328125 24-16 24s-16-10.992188-16-24 7.328125-24 16-24 16 10.992188 16 24zm-49.585937-54.71875-4.160157-37.433594c5.34375 3.832032 11.386719 7.054688 18.273438 9.199219zm-16.71875-5.527344c-15.160157-12.59375-27.390626-29.089844-36.375-43.753906h31.519531zm150.398437-68.546875c-1.207031 2.570313-2.664063 5.527344-4.351563 8.792969h-33.648437c4.035156-7.039062 6.632813-13.3125 8.097656-17.335938zm-140.09375-47.351562v-31.855469h80v31.855469c0 12.640625 6.113281 24.207031 15.75 31.640625-2.910156 8.550781-18.503906 48.503906-55.75 48.503906-37.5625 0-52.847656-39.742188-55.761719-48.488281 9.640625-7.433594 15.761719-19.007813 15.761719-31.65625zm-30.191406 38.808593c1.460937 4.023438 4.0625 10.296876 8.09375 17.335938h-33.621094c-1.699219-3.265625-3.152344-6.222656-4.363281-8.792969zm-86.640625 24.75 7.351562 11.945313c7.761719 12.617187 16.28125 24.777344 25.246094 36.59375l-41.367188 35.460937c-15.78125-21.660156-29.183593-45.148437-39.65625-70.167968zm.960937 96.722657 41.542969-35.609375c17.351562 21.289062 36.597656 41.023437 57.429688 58.929687l-25.773438 45.109375c-27.585938-19.191406-52.242188-42.261718-73.199219-68.429687zm155.871094 175.863281c12.101563 0 23.144531 4.535156 31.597656 11.960938-1.972656 15.765624-15.300781 28.039062-31.597656 28.039062s-29.625-12.273438-31.601563-28.039062c8.457032-7.425782 19.496094-11.960938 31.601563-11.960938zm0 96c-26.472656 0-48-21.527344-48-48 0-7.144531 1.605469-13.902344 4.421875-20 7.601562 16.496094 24.25 28 43.578125 28s35.976563-11.503906 43.574219-28c2.816406 6.097656 4.425781 12.855469 4.425781 20 0 26.472656-21.527344 48-48 48zm13.574219-166.046875-13.574219 5.429687-13.578125-5.429687c-19.527344-7.808594-38.132812-17.441406-55.734375-28.527344l24.855469-43.496093c12.878906 10.308593 26.265625 19.972656 40.160156 28.824218l4.296875 2.734375 4.296875-2.734375c13.894531-8.851562 27.277344-18.515625 40.160156-28.824218l24.855469 43.496093c-17.601563 11.085938-36.210937 20.71875-55.738281 28.527344zm69.105468-37.386719-25.777343-45.109375c20.832031-17.90625 40.082031-37.640625 57.433593-58.929687l41.542969 35.609375c-20.96875 26.167969-45.625 49.238281-73.199219 68.429687zm0 0"/><path d="m386.640625 136h16v16h-16zm0 0"/><path d="m322.640625 216h16v16h-16zm0 0"/></svg>