<svg height="384pt" viewBox="0 0 384 384" width="384pt" xmlns="http://www.w3.org/2000/svg"><path d="m384 24h-48c-7.214844 0-14.03125 1.648438-20.175781 4.503906-7.488281-16.769531-24.296875-28.503906-43.824219-28.503906h-160c-19.527344 0-36.335938 11.734375-43.824219 28.503906-6.144531-2.855468-12.960937-4.503906-20.175781-4.503906h-48v56c0 12.304688 4.6875 23.496094 12.320312 32-7.632812 8.503906-12.320312 19.695312-12.320312 32v64c0 26.472656 21.527344 48 48 48h16c0 65.152344 48.960938 118.976562 112 126.886719v1.113281h32v-1.113281c63.039062-7.910157 112-61.734375 112-126.886719h16c26.472656 0 48-21.527344 48-48v-64c0-12.304688-4.6875-23.496094-12.320312-32 7.632812-8.503906 12.320312-19.695312 12.320312-32zm-48 32h16v24c0 8.824219-7.175781 16-16 16h-16v-24c0-8.824219 7.175781-16 16-16zm-240-8c0-8.824219 7.175781-16 16-16h160c8.824219 0 16 7.175781 16 16v32c0 8.824219-7.175781 16-16 16h-160c-8.824219 0-16-7.175781-16-16zm-64 8h16c8.824219 0 16 7.175781 16 16v24h-16c-8.824219 0-16-7.175781-16-16zm16 168c-8.824219 0-16-7.175781-16-16v-64c0-8.824219 7.175781-16 16-16h16v96zm144 64c-17.648438 0-32-14.351562-32-32h64c0 17.648438-14.351562 32-32 32zm16 62.550781v-32.664062c27.558594-7.132813 48-32.132813 48-61.894531v-32h-128v32c0 29.75 20.441406 54.761718 48 61.894531v32.664062c-45.328125-7.648437-80-47.078125-80-94.550781v-130.800781c5.015625 1.785156 10.382812 2.800781 16 2.800781h160c5.617188 0 10.984375-1.023438 16-2.800781v130.800781c0 47.472656-34.671875 86.902344-80 94.550781zm144-142.550781c0 8.824219-7.175781 16-16 16h-16v-96h16c8.824219 0 16 7.175781 16 16zm0 0"/><path d="m128 160h40v32h-40zm0 0"/><path d="m216 160h40v32h-40zm0 0"/></svg>